<?xml version="1.0" encoding="UTF-8" standalone="no"?>
<svg
   width="1024"
   height="1024"
   viewBox="0 0 1024 1024"
   fill="none"
   version="1.1"
   id="svg8"
   sodipodi:docname="trigo.svg"
   inkscape:version="1.4.2 (ebf0e940, 2025-05-08)"
   xmlns:inkscape="http://www.inkscape.org/namespaces/inkscape"
   xmlns:sodipodi="http://sodipodi.sourceforge.net/DTD/sodipodi-0.dtd"
   xmlns="http://www.w3.org/2000/svg"
   xmlns:svg="http://www.w3.org/2000/svg">
  <defs
     id="defs8" />
  <sodipodi:namedview
     id="namedview8"
     pagecolor="#ffffff"
     bordercolor="#000000"
     borderopacity="0.25"
     inkscape:showpageshadow="2"
     inkscape:pageopacity="0.0"
     inkscape:pagecheckerboard="0"
     inkscape:deskcolor="#d1d1d1"
     inkscape:zoom="0.49242553"
     inkscape:cx="472.15261"
     inkscape:cy="539.16782"
     inkscape:window-width="1512"
     inkscape:window-height="920"
     inkscape:window-x="0"
     inkscape:window-y="34"
     inkscape:window-maximized="1"
     inkscape:current-layer="svg8" />
  <path
     d="M487.5 109.6C469 111.5 442.8 117.5 426.4 123.6C414.2 128.1 392.9 138.2 383.5 144C339.2 171.1 301.8 217.1 284.6 265.5C261.6 330.4 266.1 403.4 296.8 462C309.5 486.3 321.7 502.8 341.4 522.5C384.2 565.2 437.4 588.4 500.5 591.8C516.5 592.7 520.3 592.6 537.5 590.9C573.9 587.3 614.8 572.8 646 552.3C729.1 497.7 769.7 395.2 747.5 295.9C739.6 261.1 723.3 226.7 701.8 200C687.5 182.2 661.2 158.9 641.2 146.3C625.7 136.5 603.5 126.1 586.5 120.6C578.2 118 557.1 113.1 546.5 111.5C536.9 109.9 496.7 108.7 487.5 109.6ZM540.6 132.5C610.7 141.7 673.5 185.5 706.4 248C722.9 279.4 730.7 308.9 731.7 343.5C733.5 405.6 710.7 463.8 667.8 506.1C633.9 539.7 594.9 559.5 546 568.2C527.6 571.4 494 571.4 475.5 568.1C424.9 559 380 534.2 348.2 497.6C332.6 479.7 324.8 468.5 316 451.2C305 429.9 297.7 406.5 293.4 378C290.9 362.1 290.9 332.6 293.3 317.1C298 287 308.8 258.1 324.8 232.3C341 206.1 365.3 181.6 392 164.6C417.1 148.6 454 135.6 484.8 132C496.9 130.6 528.2 130.9 540.6 132.5Z"
     fill="black"
     id="path1"
     style="fill:#214e5f;fill-opacity:1" />
  <path
     d="M498.9 189.5C487.6 193.1 479 200.6 474.2 210.8C471.8 215.9 471.5 217.6 471.5 228.1C471.5 239.3 471.6 239.8 475.1 246.9L478.7 254.1L468.1 267.3C455.6 282.9 413.5 336 399 354.5C393.4 361.6 388.2 367.6 387.4 367.8C386.7 368 383.7 367.7 380.7 367.1C373.8 365.8 364.5 367.1 358.4 370.2C355.9 371.4 351.4 375 348.5 378.2C329 399.2 338.7 433.7 366.4 441.5C389.3 448.1 413 430.6 413 407.1V402.5L438.8 394.7C452.9 390.4 470.4 385 477.5 382.7L490.6 378.5L495.3 381.7C505 388.2 517.2 388.3 527 382C532.9 378.2 525.4 376.5 591.5 396.7L610.5 402.5L611.2 409.4C614.5 443.1 657.5 455 677.6 427.8C683.4 419.9 685.5 413.4 685.4 403.5C685.3 392.2 682.5 385.4 674.6 377.4C666.2 369 660 366.6 647.5 367.3C642.6 367.6 637.7 367.9 636.6 368.1C635.3 368.4 633 366.2 628.1 359.9C624.5 355.2 616.6 345 610.6 337.4C604.6 329.8 593.1 315.2 585.2 305C577.2 294.8 564.9 279.5 557.9 270.8L545.1 255.2L548 249.3C559.1 227.3 550.8 201.8 529.2 191.7C523.4 189 521.3 188.5 513 188.3C506.7 188.1 501.9 188.5 498.9 189.5ZM512.5 269C516.5 269 521.6 268.3 523.9 267.5L528 266.1L531.4 270.3C540.8 281.8 580.7 332.6 601.8 360C614.3 376.2 618.7 382.6 617.6 382.8C616.7 383 604.1 379.7 589.7 375.5C547.4 363.2 540.6 361 539.8 359.7C539.4 359.1 539 356.6 539 354.2C539 346.6 533.2 338.3 524.6 333.7C518.7 330.5 504.3 330.5 498.4 333.7C489.7 338.3 484.8 345.7 483.3 356L482.5 361.3L466 366.1C441.5 373.4 412.9 381.7 409.7 382.4C407.1 383 406.9 382.8 407.2 380.6C407.5 378.4 434.2 343.7 482.2 283.4L495.9 266.2L500.6 267.6C503.2 268.4 508.6 269 512.5 269Z"
     fill="black"
     id="path2"
     style="fill:#214e5f;fill-opacity:1" />
  <path
     d="M456 637.3C447.7 641.2 444 646.7 444 655C444 661 446.6 666.6 451 670.4C455 673.7 457.5 674.3 465.4 673.8C472.9 673.3 477.8 670.2 481 664C483.4 659.4 483.6 651.1 481.6 647.2C477 638.4 464.3 633.5 456 637.3Z"
     fill="black"
     id="path3"
     style="fill:#214e5f;fill-opacity:1" />
  <path
     d="M236 675V693H224H212V707.5V722H224H236V760.2C236 781.5 236.5 801.4 237 805C240.8 828.9 259.2 839.4 291.3 836.1C308.7 834.3 307 836.1 307 819.8V805.9L303.8 806.4C289 808.7 281.6 807.8 276.6 803.2C270.6 797.6 270.5 796.9 270.2 757.7L269.9 722H288.4H307V707.5V693H288.5H270V675V657H253H236V675Z"
     fill="black"
     id="path4"
     style="fill:#214e5f;fill-opacity:1" />
  <path
     d="M394.1 693.6C386.4 695.7 379.7 699.6 374 705.4L369 710.5V701.7V693H352H335V762.5V832H351.9H368.9L369.2 791.7C369.5 752.7 369.6 751.3 371.8 745.9C375.1 737.7 380.2 731.1 386.6 726.8C393.9 721.9 398.6 720.6 409.8 720.6H419.1L418.8 706.5L418.5 692.5L409 692.3C403.1 692.2 397.4 692.7 394.1 693.6Z"
     fill="black"
     id="path5"
     style="fill:#214e5f;fill-opacity:1" />
  <path
     d="M561 693.5C542.5 697 524.8 710.7 515.7 728.6C510 739.9 508.5 747.2 508.5 764C508.6 778 508.8 780.2 511.2 787.3C518.5 809 534.1 825 554.4 831.4C562.6 834 564 834.2 576.3 833.8C587.6 833.4 590.4 833 595.8 830.8C603.4 827.7 612 821.9 616.6 816.8C618.5 814.7 620.1 813 620.3 813C620.4 813 620.3 816.8 619.9 821.4C617.1 857.1 578.4 873.3 541 854.4C537.4 852.6 532.9 850 531 848.5L527.5 845.9L521.1 858.9C515.8 869.6 514.9 872.2 515.9 873.4C518.4 876.4 537.7 885 547.5 887.6C560.6 891 584.1 891.6 595.9 888.7C628.8 880.7 646.8 862.4 650.9 832.7C651.6 827.7 652 800.8 652 758.9V693H636H620V702.9V712.9L615 707.6C609.5 701.8 601.6 697.1 593 694.6C585.3 692.3 570.1 691.7 561 693.5ZM595.3 722.2C602.3 725.5 610.8 733.3 614.3 739.8C621.7 753.5 621.8 773.1 614.4 785.7C611.1 791.5 602.5 799.7 597 802.5C586.1 808 572.9 808.2 562.3 803C548.3 796.1 540 780.6 540 761.5C540 740.8 548.9 727.3 566.9 720.4C569.2 719.5 573.9 719.1 580 719.3C587.9 719.5 590.5 720 595.3 722.2Z"
     fill="black"
     id="path6"
     style="fill:#214e5f;fill-opacity:1" />
  <path
     d="M730 694C720.5 696.4 716.3 698.1 708.4 703.2C693.3 712.7 681.9 730.8 678.3 750.8C673.5 778 683.8 806.1 704.3 821.6C725.9 837.9 756.8 840.6 782.4 828.4C795.5 822.2 807.6 810.1 814.2 796.7C823.3 778.4 824.3 756.2 817 736.8C812.3 724.2 801.5 711.1 789.8 703.7C773.3 693.2 749.2 689.3 730 694ZM760.5 720.4C767.9 722.3 772.9 725.2 778.3 730.7C793.6 746.1 795.2 775.8 781.5 793.2C771.9 805.5 758.5 810.7 743.4 808.1C729.8 805.7 719.8 798.1 713.9 785.6C710 777.3 708.7 770 709.3 759.5C710.3 740.3 719.9 726.7 736.9 720.5C741.6 718.7 754.2 718.7 760.5 720.4Z"
     fill="black"
     id="path7"
     style="fill:#214e5f;fill-opacity:1" />
  <path
     d="M447 762.5V832H463.5H480V762.5V693H463.5H447V762.5Z"
     fill="black"
     id="path8"
     style="fill:#214e5f;fill-opacity:1" />
</svg>
